HIERARCHY
ROOT hip
{
	OFFSET 0.000000 0.000000 0.000000 
	CHANNELS 6 Xposition Yposition Zposition Xrotation Zrotation Yrotation
	JOINT abdomen
	{
		OFFSET 0.000000 3.402643 0.000000 
		CHANNELS 3 Xrotation Zrotation Yrotation
		JOINT chest
		{
			OFFSET 0.000000 8.438565 -0.680529 
			CHANNELS 3 Xrotation Zrotation Yrotation
			JOINT neck
			{
				OFFSET 0.000000 10.207942 -0.272212 
				CHANNELS 3 Xrotation Zrotation Yrotation
				JOINT head
				{
					OFFSET 0.000000 3.130431 0.000000 
					CHANNELS 3 Xrotation Zrotation Yrotation
					End Site
					{
						OFFSET 0.000000 3.130435 0.000000 
					}
				}
			}
			JOINT lCollar
			{
				OFFSET 3.470700 6.669187 -0.816635 
				CHANNELS 3 Yrotation Zrotation Xrotation
				JOINT lShldr
				{
					OFFSET 3.198488 0.000000 0.000000 
					CHANNELS 3 Zrotation Yrotation Xrotation
					JOINT lForeArm
					{
						OFFSET 10.139888 0.000000 0.000000 
						CHANNELS 3 Yrotation Zrotation Xrotation
						JOINT lHand
						{
							OFFSET 8.370511 0.000000 0.000000 
							CHANNELS 3 Zrotation Yrotation Xrotation
							End Site
							{
								OFFSET 4.083176 0.000000 0.000000 
							}
						}
					}
				}
			}
			JOINT rCollar
			{
				OFFSET -3.470700 6.669187 -0.816635 
				CHANNELS 3 Yrotation Zrotation Xrotation
				JOINT rShldr
				{
					OFFSET -3.198488 0.000000 0.000000 
					CHANNELS 3 Zrotation Yrotation Xrotation
					JOINT rForeArm
					{
						OFFSET -10.139888 0.000000 0.000000 
						CHANNELS 3 Yrotation Zrotation Xrotation
						JOINT rHand
						{
							OFFSET -8.370511 0.000000 0.000000 
							CHANNELS 3 Zrotation Yrotation Xrotation
							End Site
							{
								OFFSET -4.083176 0.000000 0.000000 
							}
						}
					}
				}
			}
		}
	}
	JOINT lThigh
	{
		OFFSET 5.308129 -1.633274 1.361059 
		CHANNELS 3 Xrotation Zrotation Yrotation
		JOINT lShin
		{
			OFFSET -2.041588 -20.007561 0.000000 
			CHANNELS 3 Xrotation Zrotation Yrotation
			JOINT lFoot
			{
				OFFSET 0.000000 -19.190928 -1.224953 
				CHANNELS 3 Xrotation Yrotation Zrotation
				End Site
				{
					OFFSET 0.000000 -2.449906 4.627600 
				}
			}
		}
	}
	JOINT rThigh
	{
		OFFSET -5.308129 -1.633274 1.361059 
		CHANNELS 3 Xrotation Zrotation Yrotation
		JOINT rShin
		{
			OFFSET 2.041588 -20.007561 0.000000 
			CHANNELS 3 Xrotation Zrotation Yrotation
			JOINT rFoot
			{
				OFFSET 0.000000 -19.190928 -1.224953 
				CHANNELS 3 Xrotation Yrotation Zrotation
				End Site
				{
					OFFSET 0.000000 -2.449906 4.627600 
				}
			}
		}
	}
}
MOTION
Frames: 20
Frame Time: 0.033333
-1.781291 50.490475 2.708036 -0.037281 1.328075 0.498366 0.000000 0.000000 0.000000 -13.275970 -1.188484 -4.014630 -6.787695 -0.859375 0.039058 10.694004 0.419921 0.087960 -3.521967 9.154817 6.304141 -66.103912 21.301149 -54.882439 -21.523289 11.663834 9.164963 -17.216345 2.234114 -6.332027 3.089181 -14.089146 8.026228 65.222466 -15.750346 -33.973850 12.200216 -11.253380 35.493362 4.175411 0.457461 -7.574760 0.292228 5.296501 7.282609 10.969122 -2.480592 -7.443877 -4.853544 0.164499 -1.107782 2.506594 -6.830371 -15.180977 10.378639 -0.227163 -0.586937 -10.745739 0.009546 -0.861786 
-1.893691 50.464451 2.717792 -0.057252 1.357376 0.469081 0.000000 0.000000 0.000000 -13.174769 -1.022482 -4.317112 -7.413188 -0.791015 0.078118 11.006260 0.117187 0.195332 -3.521967 9.154817 6.304141 -69.558022 20.052345 -56.338718 -21.745110 12.162800 9.403817 -17.704729 1.679578 -6.174423 3.089181 -14.089146 8.026228 67.622681 -15.340031 -33.916164 12.192274 -11.286345 35.123341 3.677458 0.571381 -7.615796 0.204481 5.495020 7.465452 11.251639 -2.578337 -7.682510 -5.290567 0.100861 -0.594176 2.390785 -6.851903 -15.331009 10.743919 -0.090600 -0.368075 -10.871993 0.006523 -0.906969 
-1.979336 50.436550 2.708660 0.009679 1.494109 0.371222 0.000000 0.000000 0.000000 -12.970487 -0.817603 -4.658703 -8.372217 -0.751947 0.234355 11.660336 0.029296 0.351567 -3.521967 9.154817 6.304141 -73.082741 18.727577 -57.269779 -21.941000 12.585876 9.929097 -17.723871 1.487190 -6.125657 3.089181 -14.089146 8.026228 69.728371 -14.731438 -34.046288 12.264193 -11.389257 34.852932 3.550200 0.712313 -7.616960 0.048223 5.536336 7.569714 11.540759 -2.705735 -7.826715 -4.936517 0.126449 -0.805779 2.097358 -7.007424 -15.483725 11.273102 -0.032131 -0.138542 -11.272681 0.032587 -0.938667 
-2.069628 50.428993 2.693608 -0.038253 1.582031 0.029555 0.000000 0.000000 0.000000 -12.105041 -0.505955 -4.902584 -10.017875 -0.820272 0.566348 12.766096 0.253895 0.546913 -3.521967 9.154817 6.304141 -76.388405 17.399832 -57.265476 -22.151089 12.628048 8.962624 -17.755024 1.695822 -6.172715 3.089181 -14.089146 8.026228 71.742371 -13.829178 -33.493084 12.376266 -11.344713 34.436180 4.148587 0.659501 -7.550280 0.038782 5.621430 7.733040 11.683834 -2.812809 -7.639658 -5.262640 0.100406 -0.445528 1.978633 -7.032299 -15.496014 11.465011 -0.032139 0.210259 -11.427989 0.027418 -0.995994 
-2.118805 50.431820 2.649986 -0.061935 1.874954 -0.400496 0.000000 0.000000 0.000000 -10.737655 -0.272377 -5.048911 -11.602580 -0.771409 0.800840 13.587525 0.273415 0.742226 -3.521967 9.154817 6.304141 -79.547005 15.962934 -55.753815 -22.291401 12.353823 8.323112 -16.558828 2.085293 -6.363705 3.089181 -14.089146 8.026228 73.810905 -12.547498 -33.520580 12.728266 -11.475455 34.870541 3.678464 0.933975 -7.572682 0.028613 5.513984 7.844074 11.664717 -3.047102 -6.839184 -5.994632 0.030217 0.269051 1.647319 -7.433831 -15.846066 12.028684 0.055649 0.814938 -11.594195 0.058756 -1.035168 
-2.185563 50.420006 2.610026 -0.019532 2.021272 -0.830595 0.000000 0.000000 0.000000 -9.519703 -0.019450 -5.234378 -12.551429 -0.214828 0.693354 14.074023 0.107407 0.937517 -3.521967 9.154817 6.304141 -82.329094 14.345263 -54.167534 -22.387798 12.370109 9.280075 -16.304558 1.610336 -6.291868 3.089181 -14.089146 8.026228 75.755074 -11.198684 -32.838314 13.056616 -11.467009 35.250729 3.121287 1.413480 -7.599160 -0.117434 5.549626 8.095137 11.988173 -3.291457 -7.172722 -4.443134 0.150684 -1.070336 1.550498 -7.474365 -15.790057 11.858898 -0.022435 1.162634 -11.915769 0.083141 -1.121753 
-2.250105 50.414314 2.560526 -0.008308 2.186987 -1.240821 0.000000 0.000000 0.000000 -7.606339 0.194439 -5.419924 -14.058951 0.400375 0.507868 14.987253 -0.156222 1.093746 -3.521967 9.154817 6.304141 -84.735626 12.464740 -51.631618 -22.434711 12.243715 10.302338 -16.161774 0.425394 -6.057847 3.089181 -14.089146 8.026228 77.681992 -9.511945 -31.979799 13.392789 -11.489240 36.718105 2.704062 1.802081 -7.616405 -0.049511 5.591092 8.283645 11.823983 -3.545580 -7.027030 -4.509254 0.110929 -0.599641 0.947072 -7.617101 -15.700851 12.828835 -0.246937 1.519905 -11.986015 0.074238 -0.985052 
-2.320818 50.403458 2.507493 -0.082009 2.323621 -1.299740 0.000000 0.000000 0.000000 -5.358680 0.262322 -5.800809 -15.503679 0.673815 0.351653 15.903584 -0.244097 1.083975 -3.521967 9.154817 6.304141 -86.450584 10.554242 -47.621357 -22.406176 11.857364 10.943200 -15.638237 0.836967 -6.202452 3.089181 -14.089146 8.026228 79.775665 -7.564841 -31.342028 13.714563 -11.608976 38.820423 2.447671 2.171304 -7.605511 -0.605757 5.739409 8.411187 13.020475 -3.574652 -7.793452 -3.692133 0.197326 -1.387544 0.964711 -7.698807 -15.786396 12.848521 -0.227381 1.785811 -12.141655 0.090407 -1.053480 
-2.420669 50.417652 2.462921 -0.399177 2.567719 -1.280200 0.000000 0.000000 0.000000 -2.240036 -0.145627 -6.201201 -17.442360 1.396484 -0.039051 17.063765 -0.790847 1.181663 -3.521967 9.154817 6.304141 -87.289444 8.393257 -42.894932 -22.276321 11.501194 13.339235 -16.138046 0.001807 -5.976587 3.089181 -14.089146 8.026228 82.207962 -5.036878 -30.498793 13.798048 -11.554852 39.306164 2.273749 3.563833 -7.518276 -0.859224 5.812700 8.469940 13.982451 -3.527935 -9.042232 -3.100591 0.189952 -1.800428 1.139454 -7.862899 -15.928889 13.021595 -0.246898 1.848719 -12.249016 0.081551 -1.047389 
-2.540078 50.428951 2.296586 -0.375500 3.046007 -1.368888 0.000000 0.000000 0.000000 0.958409 -1.125521 -6.505332 -18.853260 1.933586 -0.165921 17.685877 -0.810319 1.357424 -3.521967 9.154817 6.304141 -87.260094 5.735690 -38.116749 -21.970768 10.748416 14.119645 -16.068552 -0.975005 -5.776581 3.089181 -14.089146 8.026228 84.645622 -1.973327 -28.486801 13.528884 -11.244672 39.889179 2.095125 3.265595 -7.560729 -1.767235 5.818178 8.504573 15.333165 -3.567147 -10.238655 -3.045738 0.188372 -1.726993 0.652797 -8.169979 -15.939413 13.503589 -0.481364 1.823274 -12.551177 0.093050 -1.107800 
-2.521281 50.376488 2.101695 -0.245086 3.720488 -0.616472 0.000000 0.000000 0.000000 4.308297 -2.091368 -7.495551 -20.489140 2.148411 -0.283370 18.788647 -0.829838 1.377092 -3.521967 9.154817 6.304141 -86.698418 2.692763 -32.737679 -20.989082 9.102093 13.655018 -15.660355 -3.729984 -5.289815 3.089181 -14.089146 8.026228 86.661232 1.382773 -26.026169 13.024748 -10.827276 41.668331 1.267174 2.341326 -7.747259 -2.420063 5.160285 7.727952 15.489585 -3.206268 -12.037617 -2.199962 0.176102 -1.970410 -0.128752 -9.083096 -16.636578 14.829845 -0.364271 1.764396 -13.323503 0.088239 -1.057975 
-2.606197 50.383560 2.025367 -0.827364 3.671695 -0.567120 0.000000 0.000000 0.000000 9.136495 -2.371346 -7.643474 -22.350019 2.089782 -0.439517 19.808661 -0.742024 1.201198 -3.521967 9.154817 6.304141 -85.255081 -1.304530 -26.720259 -18.866310 6.910453 14.835356 -13.801238 -4.871598 -5.329068 3.089181 -14.089146 8.026228 88.615089 5.257909 -23.639284 12.284086 -10.273129 41.806728 1.520435 1.932145 -7.740862 -2.303656 5.582711 7.774849 16.139845 -2.891071 -14.668927 -2.121815 0.167748 -1.710407 0.213327 -8.978956 -16.635073 15.186811 -0.393523 1.607787 -12.758801 0.098289 -0.931235 
-2.670224 50.375984 1.940049 -1.281374 3.593390 -0.812014 0.000000 0.000000 0.000000 13.623972 -2.653758 -7.361863 -23.414297 2.255582 -0.898894 20.571554 -0.878789 0.937540 -3.521967 9.154817 6.304141 -84.172585 -6.826083 -22.992685 -15.929408 5.809847 22.118299 -12.749491 -1.929434 -6.011930 3.089181 -14.089146 8.026228 90.332787 9.363758 -20.882250 11.372922 -9.601681 41.841652 2.242388 1.486868 -7.699936 -2.663218 6.055836 7.723540 17.464355 -2.367516 -16.870508 -2.337473 0.163175 -1.471068 0.760038 -8.805034 -16.611071 14.689109 -0.390974 1.844237 -12.718429 0.096752 -1.030070 
-2.692301 50.347168 1.843245 -1.690103 3.436990 -0.988067 0.000000 0.000000 0.000000 18.028593 -2.752156 -7.108259 -24.658834 2.713968 -1.456682 21.182924 -1.337766 0.781265 -3.521967 9.154817 6.304141 -83.183403 -13.424136 -19.971045 -11.857533 5.181032 28.536848 -13.035132 0.882590 -6.484658 3.089181 -14.089146 8.026228 91.899849 14.127356 -18.930235 10.191697 -9.196704 42.372040 2.848259 1.240844 -7.642230 -2.586838 6.549022 7.666090 17.843058 -1.906577 -18.794823 -4.807179 -0.083849 1.205887 0.895893 -8.624534 -16.579058 14.934112 -0.422693 1.800475 -12.854650 0.082320 -1.048766 
-2.690852 50.380322 1.750441 -2.112738 3.270898 -1.085561 0.000000 0.000000 0.000000 22.184727 -2.926150 -7.177517 -26.252411 2.987196 -1.544943 22.174751 -1.435370 0.898645 -3.521967 9.154817 6.304141 -82.681236 -20.187111 -18.477310 -8.418800 5.164066 31.686737 -14.934429 3.162857 -6.714970 3.089181 -14.089146 8.026228 93.316353 19.442806 -15.432688 8.452606 -8.385864 42.170483 2.751081 -0.225611 -7.783114 -2.450237 7.212862 7.832884 17.978485 -1.516273 -17.990681 -5.495176 -0.145375 1.787773 1.396254 -8.506201 -16.763170 14.533525 -0.218636 1.945333 -12.511129 0.100504 -1.180161 
-2.655438 50.452682 1.634741 -2.298646 3.095077 -1.153826 0.000000 0.000000 0.000000 25.700006 -2.837588 -7.392081 -27.887457 3.309464 -1.466910 23.099424 -1.698851 1.191751 -3.521967 9.154817 6.304141 -82.716690 -26.170004 -17.786526 -7.717526 5.043732 32.442867 -12.401141 5.833521 -7.408211 3.089181 -14.089146 8.026228 95.020195 25.106396 -12.978607 7.731049 -7.999565 42.769238 3.441345 -2.227069 -7.913124 -2.351854 7.969624 8.349907 17.490013 -1.496726 -16.981997 -4.937357 -0.014088 0.970817 1.911681 -8.217714 -16.635944 13.379807 -0.207875 1.962976 -11.552223 0.099138 -1.264685 
-2.536171 50.485764 1.502033 -2.167455 2.909577 -1.143584 0.000000 0.000000 0.000000 27.197901 -2.690624 -7.665178 -27.890053 3.495234 -1.271337 23.128630 -1.767000 1.465352 -3.521967 9.154817 6.304141 -82.803314 -31.297491 -15.668418 -7.647274 4.539278 32.751133 -9.326475 5.194969 -7.491168 3.089181 -14.089146 8.026228 96.615395 30.051590 -10.346202 7.857387 -7.476633 44.240765 4.374089 -2.940134 -7.908627 -2.568258 8.543822 8.710225 16.695452 -1.546539 -16.249346 -3.233548 0.102231 -0.844722 1.920259 -8.145648 -16.669123 12.702985 -0.081141 2.086684 -10.799869 0.142025 -1.327658 
-2.323081 50.482899 1.382797 -2.109021 2.655808 -1.045609 0.000000 0.000000 0.000000 27.598307 -2.215664 -7.799187 -27.454693 3.339267 -1.066059 23.014570 -1.581472 1.523935 -3.521967 9.154817 6.304141 -83.251595 -36.251900 -12.533147 -7.624570 3.887183 32.890694 -5.884909 2.471183 -7.380580 3.089181 -14.089146 8.026228 97.722382 34.603798 -6.453585 8.530426 -6.606544 45.389030 4.619968 -3.301484 -7.920790 -2.635155 8.995103 9.054438 15.754401 -1.759408 -16.402731 -0.515835 0.228671 -3.396036 1.845440 -8.134742 -16.637592 12.429364 -0.081133 2.086201 -10.388526 0.099803 -1.314399 
-2.024856 50.442688 1.315011 -2.134635 2.333721 -0.859855 0.000000 0.000000 0.000000 27.000240 -1.595841 -7.952370 -27.137493 3.280563 -1.173308 22.669167 -1.493709 1.377249 -3.521967 9.154817 6.304141 -84.516785 -40.806873 -8.047980 -7.928391 3.459494 31.455217 -0.308768 1.248986 -7.787963 3.089181 -14.089146 8.026228 98.636040 38.671139 -0.435554 9.373052 -5.797982 45.537682 3.957378 -3.524561 -7.997244 -2.430619 9.259995 9.463212 15.200123 -2.120177 -17.114931 0.112823 0.216132 -3.760344 1.296251 -8.246182 -16.622047 13.544449 -0.208168 1.744677 -10.469794 0.068426 -1.102763 
-1.620061 50.412945 1.320469 -2.406591 2.050643 -0.664336 0.000000 0.000000 0.000000 25.476400 -1.295676 -8.058763 -27.128187 3.592167 -1.701998 22.319836 -1.659815 1.162470 -3.521967 9.154817 6.304141 -86.873596 -44.579071 -1.380442 -8.571847 3.563431 27.835648 6.461403 -0.240558 -8.428827 3.089181 -14.089146 8.026228 100.034676 41.738598 6.721526 10.420005 -5.802994 44.556694 1.420032 -2.905051 -8.139219 -1.864658 9.114663 9.473919 14.795137 -2.257711 -17.341312 -0.705307 0.200217 -2.791119 1.600022 -8.394680 -16.687304 13.486284 -0.344476 1.894797 -10.225885 0.072620 -1.089138 
